<?xml version="1.0" standalone="no"?><!DOCTYPE svg PUBLIC "-//W3C//DTD SVG 1.1//EN" "http://www.w3.org/Graphics/SVG/1.1/DTD/svg11.dtd"><svg t="1543478963953" class="icon" style="" viewBox="0 0 1024 1024" version="1.1" xmlns="http://www.w3.org/2000/svg" p-id="5998" xmlns:xlink="http://www.w3.org/1999/xlink" width="16" height="16"><defs><style type="text/css"></style></defs><path d="M160.01984 128h256a32 32 0 0 1 32 32v192A96 96 0 0 1 352.01984 448h-192a32 32 0 0 1-32-32v-256a32 32 0 0 1 32-32z m576 0h256a32 32 0 0 1 32 32v192A96 96 0 0 1 928.01984 448h-192a32 32 0 0 1-32-32v-256a32 32 0 0 1 32-32z m-576 576h256a32 32 0 0 1 32 32v192A96 96 0 0 1 352.01984 1024h-192a32 32 0 0 1-32-32v-256a32 32 0 0 1 32-32z m576 0h256a32 32 0 0 1 32 32v192a96 96 0 0 1-96 96h-192a32 32 0 0 1-32-32v-256a32 32 0 0 1 32-32z" fill="#556491" p-id="5999"></path><path d="M960.01984 901.76a32 32 0 1 1 64 0v26.88A94.72 94.72 0 0 1 930.57984 1024h-261.12A94.72 94.72 0 0 1 576.01984 928.64v-256A94.72 94.72 0 0 1 669.45984 576h261.12A94.72 94.72 0 0 1 1024.01984 671.36v26.88a32 32 0 1 1-64 0v-26.88a30.72 30.72 0 0 0-30.72-31.36h-259.84a30.72 30.72 0 0 0-30.72 31.36v256a30.72 30.72 0 0 0 30.72 31.36h261.12a30.72 30.72 0 0 0 30.72-31.36z m0-116.48a32 32 0 1 1 64 0v24.32a32 32 0 1 1-64 0zM384.01984 245.12a32 32 0 1 1 64 0v107.52A94.72 94.72 0 0 1 354.57984 448H93.45984A94.72 94.72 0 0 1 0.01984 352.64v-256A94.72 94.72 0 0 1 93.45984 0h261.12A94.72 94.72 0 0 1 448.01984 95.36v171.52a32 32 0 1 1-64 0V95.36A30.72 30.72 0 0 0 354.57984 64H93.45984a30.72 30.72 0 0 0-29.44 31.36v256a30.72 30.72 0 0 0 29.44 32.64h261.12A30.72 30.72 0 0 0 384.01984 352.64z m0 640a32 32 0 1 1 64 0v43.52A94.72 94.72 0 0 1 354.57984 1024H93.45984A94.72 94.72 0 0 1 0.01984 928.64v-256A94.72 94.72 0 0 1 93.45984 576h261.12A94.72 94.72 0 0 1 448.01984 671.36v235.52a32 32 0 1 1-64 0v-235.52a30.72 30.72 0 0 0-29.44-31.36H93.45984a30.72 30.72 0 0 0-30.72 31.36v256a30.72 30.72 0 0 0 30.72 31.36h261.12a30.72 30.72 0 0 0 29.44-30.08z m576-640a32 32 0 1 1 64 0v107.52A94.72 94.72 0 0 1 930.57984 448h-261.12A94.72 94.72 0 0 1 576.01984 352.64v-256A94.72 94.72 0 0 1 669.45984 0h261.12A94.72 94.72 0 0 1 1024.01984 95.36v171.52a32 32 0 1 1-64 0V95.36a30.72 30.72 0 0 0-29.44-31.36h-261.12a30.72 30.72 0 0 0-30.72 31.36v256a30.72 30.72 0 0 0 30.72 31.36h261.12a30.72 30.72 0 0 0 29.44-30.08z" fill="#6BDBAB" p-id="6000"></path></svg>