<?xml version="1.0" standalone="no"?><!DOCTYPE svg PUBLIC "-//W3C//DTD SVG 1.1//EN" "http://www.w3.org/Graphics/SVG/1.1/DTD/svg11.dtd"><svg t="1543478875629" class="icon" style="" viewBox="0 0 1024 1024" version="1.1" xmlns="http://www.w3.org/2000/svg" p-id="5752" xmlns:xlink="http://www.w3.org/1999/xlink" width="16" height="16"><defs><style type="text/css"></style></defs><path d="M911.587556 858.453333c0-15.587556 12.458667-28.273778 27.761777-28.273777 15.36 0 27.761778 12.686222 27.761778 28.330666v23.608889c0 46.933333-37.262222 84.992-83.228444 84.992h-231.765334C606.151111 967.111111 568.888889 929.052444 568.888889 882.119111v-228.238222c0-46.933333 37.262222-84.992 83.228444-84.992h231.765334c45.966222 0 83.228444 38.058667 83.228444 84.992v23.722667a28.046222 28.046222 0 0 1-27.761778 28.330666 28.046222 28.046222 0 0 1-27.761777-28.330666v-23.722667a28.046222 28.046222 0 0 0-27.704889-28.330667h-231.765334a28.046222 28.046222 0 0 0-27.704889 28.330667v228.238222c0 15.644444 12.401778 28.330667 27.704889 28.330667h231.765334c15.303111 0 27.704889-12.686222 27.704889-28.330667v-23.608889zM910.222222 755.086222c0-15.644444 12.401778-28.330667 27.761778-28.330666s27.761778 12.686222 27.761778 28.330666v21.617778a28.046222 28.046222 0 0 1-27.761778 28.330667 28.046222 28.046222 0 0 1-27.761778-28.330667v-21.617778zM399.587556 274.773333c0-15.644444 12.458667-28.330667 27.761777-28.330666 15.36 0 27.761778 12.686222 27.761778 28.330666v95.345778C455.111111 417.052444 417.848889 455.111111 371.882667 455.111111H140.117333C94.151111 455.111111 56.888889 417.052444 56.888889 370.119111V141.880889C56.888889 94.947556 94.151111 56.888889 140.117333 56.888889h231.765334C417.848889 56.888889 455.111111 94.947556 455.111111 141.880889V294.115556a28.046222 28.046222 0 0 1-27.761778 28.330666 28.046222 28.046222 0 0 1-27.761777-28.330666V141.880889a28.046222 28.046222 0 0 0-27.704889-28.330667H140.117333a28.046222 28.046222 0 0 0-27.704889 28.330667v228.238222c0 15.644444 12.401778 28.330667 27.704889 28.330667h231.765334c15.303111 0 27.704889-12.686222 27.704889-28.330667V274.773333z m0 568.888889c0-15.644444 12.458667-28.330667 27.761777-28.330666 15.36 0 27.761778 12.686222 27.761778 28.330666v38.456889C455.111111 929.052444 417.848889 967.111111 371.882667 967.111111H140.117333C94.151111 967.111111 56.888889 929.052444 56.888889 882.119111v-228.238222C56.888889 606.947556 94.151111 568.888889 140.117333 568.888889h231.765334C417.848889 568.888889 455.111111 606.947556 455.111111 653.880889v209.123555a28.046222 28.046222 0 0 1-27.761778 28.330667 28.046222 28.046222 0 0 1-27.761777-28.330667v-209.123555a28.046222 28.046222 0 0 0-27.704889-28.330667H140.117333a28.046222 28.046222 0 0 0-27.704889 28.330667v228.238222c0 15.644444 12.401778 28.330667 27.704889 28.330667h231.765334c15.303111 0 27.704889-12.686222 27.704889-28.330667v-38.456889z m512-568.888889c0-15.644444 12.458667-28.330667 27.761777-28.330666 15.36 0 27.761778 12.686222 27.761778 28.330666v95.345778C967.111111 417.052444 929.848889 455.111111 883.882667 455.111111h-231.765334C606.151111 455.111111 568.888889 417.052444 568.888889 370.119111V141.880889C568.888889 94.947556 606.151111 56.888889 652.117333 56.888889h231.765334C929.848889 56.888889 967.111111 94.947556 967.111111 141.880889V294.115556a28.046222 28.046222 0 0 1-27.761778 28.330666 28.046222 28.046222 0 0 1-27.761777-28.330666V141.880889a28.046222 28.046222 0 0 0-27.704889-28.330667h-231.765334a28.046222 28.046222 0 0 0-27.704889 28.330667v228.238222c0 15.644444 12.401778 28.330667 27.704889 28.330667h231.765334c15.303111 0 27.704889-12.686222 27.704889-28.330667V274.773333z" fill="#ffffff" fill-opacity="0.75" p-id="5753"></path></svg>