<?xml version="1.0" encoding="UTF-8"?>
<svg width="18px" height="18px" viewBox="0 0 18 18" version="1.1" xmlns="http://www.w3.org/2000/svg" xmlns:xlink="http://www.w3.org/1999/xlink">
    <!-- Generator: Sketch 51.2 (57519) - http://www.bohemiancoding.com/sketch -->
    <title>ic_log out</title>
    <desc>Created with Sketch.</desc>
    <defs></defs>
    <g id="web2.0/通用联通版" stroke="none" stroke-width="1" fill="none" fill-rule="evenodd" fill-opacity="0.43">
        <g id="menu+topbar" transform="translate(-1398.000000, -21.000000)" fill="#000000">
            <g id="顶部导航栏">
                <g id="ic" transform="translate(1398.000000, 21.000000)">
                    <g id="登出-退出-关闭">
                        <path d="M13.8938339,1.51191377 C13.5763755,1.30634731 13.1452419,1.39464431 12.9359134,1.71472096 C12.7293574,2.0347976 12.8194657,2.46248623 13.141083,2.66943234 C15.3147726,4.07528623 16.6137184,6.45516647 16.6137184,9.03647425 C16.6137184,13.2167856 13.2020794,16.6176 9.0099639,16.6176 C4.81784838,16.6176 1.40620939,13.2167856 1.40620939,9.03647425 C1.40620939,6.45654611 2.70654152,4.07528623 4.88161733,2.67081198 C5.20323466,2.46386587 5.29472924,2.0347976 5.086787,1.71472096 C4.8760722,1.39326467 4.44771119,1.30220838 4.12748014,1.51053413 C1.55454152,3.1730012 0.0185415162,5.98608862 0.0185415162,9.03647425 C0.0185415162,13.9797269 4.05123466,18 9.0099639,18 C13.9686931,18 18,13.9797269 18,9.03647425 C18,5.98470898 16.4653863,3.17162156 13.8938339,1.51191377 Z M9.0099639,9.63937725 C9.39257762,9.63937725 9.70310469,9.32343952 9.70310469,8.93162156 L9.70310469,0.722759281 C9.70310469,0.332320958 9.39257762,0.0163832335 9.0099639,0.0163832335 C8.62735018,0.0163832335 8.3168231,0.332320958 8.3168231,0.722759281 L8.3168231,8.93162156 C8.3168231,9.32343952 8.6259639,9.63937725 9.0099639,9.63937725 Z" id="Shape" fill-rule="nonzero"></path>
                    </g>
                </g>
            </g>
        </g>
    </g>
</svg>